<svg width="49" height="41" viewBox="0 0 49 41" fill="none" xmlns="http://www.w3.org/2000/svg">
<g clip-path="url(#clip0_1479_998)">
<path fill-rule="evenodd" clip-rule="evenodd" d="M46.4167 39.1962C46.4167 39.1962 49.5 39.1962 49.5 36.0851C49.5 32.974 46.4167 23.6407 34.0833 23.6407C21.75 23.6407 18.6667 32.974 18.6667 36.0851C18.6667 39.1962 21.75 39.1962 21.75 39.1962H46.4167ZM21.8178 36.0851H46.3488C46.3633 36.0834 46.3777 36.0814 46.392 36.0789L46.4167 36.0727C46.4105 35.2514 45.9017 32.8682 44.0733 30.7216C42.3713 28.7087 39.3805 26.7518 34.0833 26.7518C28.7892 26.7518 25.7984 28.7118 24.0933 30.7216C22.2649 32.8682 21.7531 35.2545 21.75 36.0727C21.7726 36.0771 21.7952 36.0812 21.8178 36.0851ZM34.0833 17.4185C35.7188 17.4185 37.2873 16.7629 38.4438 15.596C39.6003 14.4291 40.25 12.8465 40.25 11.1962C40.25 9.54601 39.6003 7.96337 38.4438 6.79647C37.2873 5.62958 35.7188 4.97403 34.0833 4.97403C32.4478 4.97403 30.8793 5.62958 29.7228 6.79647C28.5664 7.96337 27.9167 9.54601 27.9167 11.1962C27.9167 12.8465 28.5664 14.4291 29.7228 15.596C30.8793 16.7629 32.4478 17.4185 34.0833 17.4185ZM43.3333 11.1962C43.3333 12.4219 43.0941 13.6356 42.6292 14.768C42.1644 15.9003 41.483 16.9292 40.6241 17.7959C39.7651 18.6626 38.7454 19.3501 37.6231 19.8191C36.5009 20.2882 35.2981 20.5296 34.0833 20.5296C32.8686 20.5296 31.6658 20.2882 30.5435 19.8191C29.4212 19.3501 28.4015 18.6626 27.5426 17.7959C26.6836 16.9292 26.0023 15.9003 25.5374 14.768C25.0726 13.6356 24.8333 12.4219 24.8333 11.1962C24.8333 8.72089 25.8079 6.34692 27.5426 4.59659C29.2773 2.84625 31.6301 1.86292 34.0833 1.86292C36.5366 1.86292 38.8894 2.84625 40.6241 4.59659C42.3588 6.34692 43.3333 8.72089 43.3333 11.1962ZM21.5527 24.5118C20.3193 24.1199 19.0479 23.8623 17.7602 23.7434C17.0366 23.6739 16.3102 23.6397 15.5833 23.6407C3.25 23.6407 0.166664 32.974 0.166664 36.0851C0.166664 38.1602 1.19341 39.1962 3.25 39.1962H16.2493C15.7922 38.225 15.5643 37.1601 15.5833 36.0851C15.5833 32.9429 16.7457 29.7322 18.9442 27.0505C19.6934 26.1358 20.566 25.2802 21.5527 24.5118ZM15.3367 26.7518C10.1937 26.814 7.27375 28.7429 5.59333 30.7216C3.75258 32.8807 3.25 35.2731 3.25 36.0851H12.5C12.5 32.834 13.4959 29.5954 15.3367 26.7518ZM4.79166 12.7518C4.79166 10.2764 5.76621 7.90248 7.50093 6.15214C9.23564 4.4018 11.5884 3.41847 14.0417 3.41847C16.4949 3.41847 18.8477 4.4018 20.5824 6.15214C22.3171 7.90248 23.2917 10.2764 23.2917 12.7518C23.2917 15.2272 22.3171 17.6011 20.5824 19.3515C18.8477 21.1018 16.4949 22.0851 14.0417 22.0851C11.5884 22.0851 9.23564 21.1018 7.50093 19.3515C5.76621 17.6011 4.79166 15.2272 4.79166 12.7518ZM14.0417 6.52958C12.4062 6.52958 10.8376 7.18513 9.68117 8.35203C8.5247 9.51892 7.875 11.1016 7.875 12.7518C7.875 14.402 8.5247 15.9847 9.68117 17.1516C10.8376 18.3185 12.4062 18.974 14.0417 18.974C15.6772 18.974 17.2457 18.3185 18.4022 17.1516C19.5586 15.9847 20.2083 14.402 20.2083 12.7518C20.2083 11.1016 19.5586 9.51892 18.4022 8.35203C17.2457 7.18513 15.6772 6.52958 14.0417 6.52958Z" fill="#23A6F0"/>
</g>
<defs>
<clipPath id="clip0_1479_998">
<rect width="48" height="39.5295" fill="white" transform="translate(0.5 0.529541)"/>
</clipPath>
</defs>
</svg>
