<svg width="49" height="40" viewBox="0 0 49 40" fill="none" xmlns="http://www.w3.org/2000/svg">
<g clip-path="url(#clip0_1479_1004)">
<path fill-rule="evenodd" clip-rule="evenodd" d="M46.4167 38.7257C46.4167 38.7257 49.5 38.7257 49.5 35.6146C49.5 32.5034 46.4167 23.1701 34.0833 23.1701C21.75 23.1701 18.6667 32.5034 18.6667 35.6146C18.6667 38.7257 21.75 38.7257 21.75 38.7257H46.4167ZM21.8178 35.6146H46.3488C46.3633 35.6129 46.3777 35.6108 46.392 35.6083L46.4167 35.6021C46.4105 34.7808 45.9017 32.3977 44.0733 30.251C42.3713 28.2381 39.3805 26.2812 34.0833 26.2812C28.7892 26.2812 25.7984 28.2412 24.0933 30.251C22.2649 32.3977 21.7531 34.7839 21.75 35.6021C21.7726 35.6065 21.7952 35.6106 21.8178 35.6146ZM34.0833 16.9479C35.7188 16.9479 37.2873 16.2923 38.4438 15.1254C39.6003 13.9585 40.25 12.3759 40.25 10.7257C40.25 9.07543 39.6003 7.49278 38.4438 6.32589C37.2873 5.159 35.7188 4.50344 34.0833 4.50344C32.4478 4.50344 30.8793 5.159 29.7228 6.32589C28.5664 7.49278 27.9167 9.07543 27.9167 10.7257C27.9167 12.3759 28.5664 13.9585 29.7228 15.1254C30.8793 16.2923 32.4478 16.9479 34.0833 16.9479ZM43.3333 10.7257C43.3333 11.9513 43.0941 13.165 42.6292 14.2974C42.1644 15.4298 41.483 16.4586 40.6241 17.3253C39.7651 18.192 38.7454 18.8795 37.6231 19.3485C36.5009 19.8176 35.2981 20.059 34.0833 20.059C32.8686 20.059 31.6658 19.8176 30.5435 19.3485C29.4212 18.8795 28.4015 18.192 27.5426 17.3253C26.6836 16.4586 26.0023 15.4298 25.5374 14.2974C25.0726 13.165 24.8333 11.9513 24.8333 10.7257C24.8333 8.25031 25.8079 5.87634 27.5426 4.126C29.2773 2.37566 31.6301 1.39233 34.0833 1.39233C36.5366 1.39233 38.8894 2.37566 40.6241 4.126C42.3588 5.87634 43.3333 8.25031 43.3333 10.7257ZM21.5527 24.0412C20.3193 23.6493 19.0479 23.3917 17.7602 23.2728C17.0366 23.2034 16.3102 23.1691 15.5833 23.1701C3.25 23.1701 0.166664 32.5034 0.166664 35.6146C0.166664 37.6897 1.19341 38.7257 3.25 38.7257H16.2493C15.7922 37.7544 15.5643 36.6896 15.5833 35.6146C15.5833 32.4723 16.7457 29.2617 18.9442 26.5799C19.6934 25.6652 20.566 24.8097 21.5527 24.0412ZM15.3367 26.2812C10.1937 26.3434 7.27375 28.2723 5.59333 30.251C3.75258 32.4101 3.25 34.8026 3.25 35.6146H12.5C12.5 32.3634 13.4959 29.1248 15.3367 26.2812ZM4.79166 12.2812C4.79166 9.80587 5.76621 7.4319 7.50093 5.68156C9.23564 3.93122 11.5884 2.94789 14.0417 2.94789C16.4949 2.94789 18.8477 3.93122 20.5824 5.68156C22.3171 7.4319 23.2917 9.80587 23.2917 12.2812C23.2917 14.7566 22.3171 17.1305 20.5824 18.8809C18.8477 20.6312 16.4949 21.6146 14.0417 21.6146C11.5884 21.6146 9.23564 20.6312 7.50093 18.8809C5.76621 17.1305 4.79166 14.7566 4.79166 12.2812ZM14.0417 6.059C12.4062 6.059 10.8376 6.71455 9.68117 7.88145C8.5247 9.04834 7.875 10.631 7.875 12.2812C7.875 13.9315 8.5247 15.5141 9.68117 16.681C10.8376 17.8479 12.4062 18.5034 14.0417 18.5034C15.6772 18.5034 17.2457 17.8479 18.4022 16.681C19.5586 15.5141 20.2083 13.9315 20.2083 12.2812C20.2083 10.631 19.5586 9.04834 18.4022 7.88145C17.2457 6.71455 15.6772 6.059 14.0417 6.059Z" fill="white"/>
</g>
<defs>
<clipPath id="clip0_1479_1004">
<rect width="48" height="39.5295" fill="white" transform="translate(0.5 0.05896)"/>
</clipPath>
</defs>
</svg>
